<svg xmlns="http://www.w3.org/2000/svg" width="1400" height="900" viewBox="0 0 1400 900">
  <defs>
    <linearGradient id="hull" x1="220" y1="520" x2="1190" y2="650" gradientUnits="userSpaceOnUse">
      <stop offset="0" stop-color="#101820"/>
      <stop offset="0.48" stop-color="#27313a"/>
      <stop offset="1" stop-color="#0b1117"/>
    </linearGradient>
    <linearGradient id="deck" x1="440" y1="310" x2="900" y2="475" gradientUnits="userSpaceOnUse">
      <stop offset="0" stop-color="#f5f7f8"/>
      <stop offset="1" stop-color="#b9c4c9"/>
    </linearGradient>
    <filter id="softShadow" x="-20%" y="-20%" width="140%" height="140%">
      <feDropShadow dx="0" dy="22" stdDeviation="24" flood-color="#071017" flood-opacity="0.22"/>
    </filter>
  </defs>
  <rect width="1400" height="900" fill="#eef2f4"/>
  <g filter="url(#softShadow)">
    <path d="M168 556 L1004 501 L1260 562 L1188 637 L309 669 Z" fill="url(#hull)"/>
    <path d="M309 669 L1188 637 L1130 682 L379 713 Z" fill="#070b10" opacity="0.82"/>
    <path d="M353 515 L998 483 L1126 527 L398 569 Z" fill="#dce4e7"/>
    <path d="M441 448 L719 393 L934 461 L663 504 Z" fill="url(#deck)"/>
    <path d="M571 370 L737 328 L839 444 L656 487 Z" fill="#c9d4d8"/>
    <path d="M643 336 L728 315 L772 388 L675 410 Z" fill="#18232b"/>
    <path d="M741 304 L781 293 L835 445 L797 453 Z" fill="#202c34"/>
    <path d="M791 282 L814 277 L858 441 L834 446 Z" fill="#4c5b63"/>
    <path d="M459 505 L651 481 L643 499 L438 526 Z" fill="#0e151c" opacity="0.24"/>
    <path d="M817 480 L1038 506 L1005 522 L798 501 Z" fill="#0e151c" opacity="0.18"/>
    <path d="M229 554 L360 544 L407 568 L301 575 Z" fill="#00a7b5"/>
    <path d="M958 508 L1135 548" stroke="#00a7b5" stroke-width="12" stroke-linecap="round"/>
    <path d="M500 460 L624 432" stroke="#ffffff" stroke-width="9" stroke-linecap="round" opacity="0.8"/>
    <path d="M690 375 L767 358" stroke="#ffffff" stroke-width="8" stroke-linecap="round" opacity="0.65"/>
    <path d="M196 556 L1004 504 L1240 563" fill="none" stroke="#ffffff" stroke-width="3" opacity="0.42"/>
  </g>
</svg>
